<svg enable-background="new 0 0 163 33" viewBox="0 0 163 33" xmlns="http://www.w3.org/2000/svg"><g fill="#555273"><g transform="translate(42 12.117)"><path d="m0 0h3.9v8.4h.1c.4-.6 1-1.1 1.7-1.3.8-.2 1.5-.3 2.3-.3s1.7.2 2.4.6 1.3.9 1.8 1.5.9 1.4 1.2 2.2.4 1.7.4 2.6-.1 1.8-.4 2.6-.7 1.5-1.3 2.1-1.2 1.1-2 1.4-1.7.5-2.6.5c-.4 0-.9-.1-1.3-.2s-.8-.3-1.1-.5-.6-.4-.9-.6c-.2-.2-.4-.4-.6-.7v1.7h-3.6zm3.6 13.4c0 .9.3 1.7.8 2.3.6.6 1.5.9 2.3.9.9.1 1.7-.3 2.3-.9s.9-1.5.8-2.3c0-.9-.3-1.7-.8-2.3-.6-.6-1.5-.9-2.3-.9-.9-.1-1.7.3-2.3.9-.5.7-.8 1.5-.8 2.3z"/><path d="m23.6 18.2c-.5.7-1.1 1.2-1.8 1.5s-1.5.4-2.3.4c-.6 0-1.2-.1-1.7-.2-.5-.2-1-.4-1.5-.7-.4-.3-.8-.8-1-1.2-.3-.5-.4-1.1-.4-1.7s.1-1.3.4-1.9c.3-.5.6-.9 1.1-1.3.5-.3 1-.6 1.6-.8s1.2-.3 1.8-.4 1.3-.1 1.9-.2h1.8c0-.6-.3-1.3-.7-1.7-.5-.4-1.1-.6-1.8-.6-.6 0-1.2.1-1.8.4-.5.3-1 .7-1.4 1.1l-2.1-2.1c.7-.7 1.6-1.2 2.6-1.5s2-.5 3-.5 1.9.1 2.8.4c.7.3 1.3.7 1.8 1.3s.8 1.3.9 2.1c.2.9.3 1.9.3 2.8v6.5h-3.6zm-1-4c-.3 0-.7 0-1.1 0s-.9.1-1.3.2-.7.3-1 .6-.5.6-.4 1c0 .4.2.8.6 1s.8.3 1.3.3c.4 0 .8-.1 1.1-.2s.7-.2 1-.4.5-.4.7-.7.3-.7.2-1v-.8z"/><path d="m29.2 15.9 6.6-5.7h-6.4v-3.1h11v3.8l-6.9 5.8h7.1v3.1h-11.4z"/><path d="m50.8 18.2c-.5.7-1.1 1.2-1.8 1.5s-1.5.4-2.3.4c-.6 0-1.2-.1-1.7-.2-.5-.2-1-.4-1.5-.7-.4-.3-.8-.8-1-1.2-.3-.5-.4-1.1-.4-1.7s.1-1.3.4-1.9c.3-.5.6-.9 1.1-1.3.5-.3 1-.6 1.6-.8s1.2-.3 1.8-.4 1.3-.1 1.9-.2h1.8c0-.6-.3-1.3-.7-1.7-.5-.4-1.1-.6-1.8-.6-.6 0-1.2.1-1.8.4-.5.3-1 .7-1.4 1.1l-2-2.1c.7-.7 1.6-1.2 2.6-1.5s2-.5 3-.5 1.9.1 2.8.4c.7.3 1.3.7 1.8 1.3s.8 1.3.9 2.1c.2.9.3 1.9.3 2.8v6.5h-3.6zm-1-4c-.3 0-.7 0-1.1 0s-.9.1-1.3.2-.7.3-1 .6-.5.6-.4 1c0 .4.2.8.6 1s.8.3 1.3.3c.4 0 .8-.1 1.1-.2s.7-.2 1-.4.5-.4.7-.7.3-.7.2-1v-.8z"/><path d="m78.9 18.2c-.5.7-1.1 1.2-1.8 1.5s-1.5.4-2.3.4c-.6 0-1.2-.1-1.7-.2-.5-.2-1-.4-1.5-.7-.4-.3-.8-.8-1-1.2-.3-.5-.4-1.1-.4-1.7s.1-1.3.4-1.9c.3-.5.6-.9 1.1-1.3.5-.3 1-.6 1.6-.8s1.2-.3 1.8-.4 1.3-.1 1.9-.2h1.8c0-.6-.3-1.3-.7-1.7-.5-.4-1.1-.6-1.8-.6-.6 0-1.2.1-1.8.4-.5.3-1 .7-1.4 1.1l-2.1-2.1c.7-.7 1.6-1.2 2.6-1.5s2-.5 3-.5 1.9.1 2.8.4c.7.3 1.3.7 1.8 1.3s.8 1.3.9 2.1c.2.9.3 1.9.3 2.8v6.5h-3.6zm-1-4c-.3 0-.7 0-1.1 0s-.9.1-1.3.2-.7.3-1 .6-.5.6-.4 1c0 .4.2.8.6 1s.8.3 1.3.3c.4 0 .8-.1 1.1-.2s.7-.2 1-.4.5-.4.7-.7.3-.7.2-1v-.8z"/><path d="m64.9 18.2c-.5.7-1.1 1.2-1.8 1.5s-1.5.4-2.3.4c-.6 0-1.2-.1-1.7-.2-.5-.2-1-.4-1.5-.7-.4-.3-.8-.8-1-1.2-.3-.5-.4-1.1-.4-1.7s.1-1.3.4-1.9c.3-.5.6-.9 1.1-1.3.5-.3 1-.6 1.6-.8s1.2-.3 1.8-.4 1.3-.1 1.9-.2h1.8c0-.6-.3-1.3-.7-1.7-.5-.4-1.1-.6-1.8-.6-.6 0-1.2.1-1.8.4-.5.3-1 .7-1.4 1.1l-2.1-2.1c.7-.7 1.6-1.2 2.6-1.5s2-.5 3-.5 1.9.1 2.8.4c.7.3 1.3.7 1.8 1.3s.8 1.3.9 2.1c.2.9.3 1.9.3 2.8v6.5h-3.6zm-1-4c-.3 0-.7 0-1.1 0s-.9.1-1.3.2-.7.3-1 .6-.5.6-.4 1c0 .4.2.8.6 1s.8.3 1.3.3c.4 0 .8-.1 1.1-.2s.7-.2 1-.4.5-.4.7-.7.3-.7.2-1v-.8z"/><path d="m85 7.1h3.9v2h.1c.3-.7.9-1.3 1.5-1.8.6-.4 1.4-.6 2.2-.6h.7c.2 0 .4 0 .6.1v3.6c-.3-.1-.5-.2-.8-.2s-.6-.1-.9-.1c-.6 0-1.2.1-1.8.3-.4.2-.8.5-1 .9s-.4.9-.5 1.3c-.1.6-.1 1.2-.1 1.7v5.3h-3.9z"/><path d="m93.3 17.6c0-.3.1-.6.2-.9s.3-.6.5-.8.5-.4.8-.5.6-.2.9-.2.6.1.9.2.6.3.8.5.4.5.5.8.2.6.2.9-.1.6-.2.9-.3.6-.5.8-.5.4-.8.5-.6.2-.9.2-.6-.1-.9-.2-.6-.3-.8-.5-.4-.5-.5-.8c-.2-.3-.2-.6-.2-.9z"/><path d="m100.7 3.1c0-.6.2-1.2.7-1.6.4-.4 1-.7 1.6-.7s1.2.2 1.6.7c.4.4.7 1 .7 1.6s-.2 1.2-.7 1.6c-.4.4-1 .7-1.6.7s-1.2-.2-1.6-.7c-.5-.4-.7-1-.7-1.6zm.3 4h3.9v12.7h-3.9z"/><path d="m106.8 13.4c0-.9.2-1.9.6-2.8.4-.8.9-1.5 1.5-2.1.7-.6 1.4-1.1 2.3-1.3.9-.3 1.8-.5 2.8-.5.9 0 1.9.2 2.8.5.8.3 1.6.8 2.3 1.3.6.6 1.2 1.3 1.5 2.1.4.9.6 1.8.6 2.8 0 .9-.2 1.9-.6 2.8-.4.8-.9 1.5-1.5 2.1-.7.6-1.4 1.1-2.3 1.3-.9.3-1.8.5-2.8.5-.9 0-1.9-.2-2.8-.5-.8-.3-1.6-.8-2.3-1.3-.6-.6-1.2-1.3-1.5-2.1-.4-.9-.6-1.8-.6-2.8zm3.9 0c0 .9.3 1.7.8 2.3.6.6 1.5.9 2.3.9.9.1 1.7-.3 2.3-.9s.9-1.5.8-2.3c0-.9-.3-1.7-.8-2.3-.6-.6-1.5-.9-2.3-.9-.9-.1-1.7.3-2.3.9-.5.7-.8 1.5-.8 2.3z"/></g><g transform="translate(175.799 -2041.303)"><path d="m-147 2041.3h-16.5v11.2h.1c.7-.9 1.6-1.6 2.7-2 1.2-.4 2.4-.6 3.6-.6 1.3 0 2.6.3 3.8.9 1.1.6 2.1 1.4 2.9 2.4s1.4 2.2 1.8 3.4c.4 1.3.6 2.6.6 4s-.2 2.8-.7 4.2c-.4 1.2-1.1 2.3-2 3.3-.9.9-1.9 1.7-3.1 2.1-1.3.5-2.6.8-4 .8-.7 0-1.4-.1-2-.3s-1.2-.4-1.7-.7-1-.6-1.4-1c-.4-.3-.7-.7-1-1.1h-.1v3.1h-5.7v-29.5h-6.1v32.8h32.8v-28.8c0-2.4-1.8-4.2-4-4.2z"/><path d="m-159.1 2065.4c1.4.1 2.7-.4 3.6-1.4s1.4-2.3 1.3-3.7c.1-1.3-.4-2.7-1.3-3.7-1-1-2.3-1.5-3.6-1.4-1.4-.1-2.7.4-3.6 1.4s-1.4 2.3-1.3 3.7c-.1 1.3.4 2.7 1.3 3.7.9.9 2.3 1.4 3.6 1.4z"/></g></g></svg>