<svg enable-background="new 0 0 42 42" viewBox="0 0 42 42" xmlns="http://www.w3.org/2000/svg"><g fill="#555273"><path d="m36.5 0h-21v14.1h.1c.9-1.2 2.1-2.1 3.5-2.6 1.5-.5 3-.8 4.6-.8 1.7 0 3.3.4 4.8 1.1 1.4.7 2.6 1.8 3.6 3 1 1.3 1.8 2.7 2.3 4.3s.8 3.4.8 5.1c0 1.8-.3 3.6-.9 5.3-.6 1.5-1.4 2.9-2.5 4.1s-2.4 2.1-3.9 2.7c-1.6.7-3.4 1-5.1 1-.9 0-1.7-.1-2.6-.4-.8-.2-1.5-.5-2.2-.9-.6-.4-1.2-.8-1.8-1.3-.5-.4-.9-.9-1.2-1.4h-.1v4h-7.2v-37.3h-7.7v41.6h41.6v-36.6c0-2.8-2.3-5-5.1-5z"/><path d="m21.2 30.5c1.7.1 3.4-.5 4.6-1.8 1.1-1.3 1.7-2.9 1.6-4.6.1-1.7-.5-3.4-1.6-4.6-1.2-1.2-2.9-1.9-4.6-1.8-1.7-.1-3.4.5-4.6 1.8-1.1 1.3-1.7 2.9-1.6 4.6-.1 1.7.5 3.4 1.6 4.6 1.2 1.3 2.9 1.9 4.6 1.8z"/></g></svg>