<svg id="Layer_1" data-name="Layer 1" xmlns="http://www.w3.org/2000/svg" viewBox="0 0 41.6 41.6"><defs><style>.cls-1{fill:#3498db;}</style></defs><title>logo_sp</title><path class="cls-1" d="M36.5,0h-21V14.1h.1a7.53,7.53,0,0,1,3.5-2.6,14.35,14.35,0,0,1,4.6-.8,11.25,11.25,0,0,1,4.8,1.1,11.55,11.55,0,0,1,3.6,3,13.72,13.72,0,0,1,2.3,4.3,17.53,17.53,0,0,1,.8,5.1,16,16,0,0,1-.9,5.3,13.29,13.29,0,0,1-2.5,4.1,10.54,10.54,0,0,1-3.9,2.7,12.88,12.88,0,0,1-5.1,1,7.83,7.83,0,0,1-2.6-.4A8.49,8.49,0,0,1,18,36a20.28,20.28,0,0,1-1.8-1.3A5.26,5.26,0,0,1,15,33.3h-.1v4H7.7V0H0V41.6H41.6V5A5,5,0,0,0,36.5,0Z" transform="translate(0 0)"/><path class="cls-1" d="M21.2,30.5a5.75,5.75,0,0,0,4.6-1.8,6.49,6.49,0,0,0,1.6-4.6,6.34,6.34,0,0,0-1.6-4.6,6.1,6.1,0,0,0-4.6-1.8,5.75,5.75,0,0,0-4.6,1.8A6.49,6.49,0,0,0,15,24.1a6.34,6.34,0,0,0,1.6,4.6A5.75,5.75,0,0,0,21.2,30.5Z" transform="translate(0 0)"/></svg>