<svg id="Layer_1" data-name="Layer 1" xmlns="http://www.w3.org/2000/svg" viewBox="0 0 163.2 33"><defs><style>.cls-1{fill:#3498db;}</style></defs><title>logo_pc</title><path class="cls-1" d="M42,12.12h3.9v8.4H46a3.15,3.15,0,0,1,1.7-1.3,9.08,9.08,0,0,1,2.3-.3,5,5,0,0,1,2.4.6A6.55,6.55,0,0,1,54.2,21a7.76,7.76,0,0,1,1.2,2.2,7.46,7.46,0,0,1,.4,2.6,7.46,7.46,0,0,1-.4,2.6,5.71,5.71,0,0,1-1.3,2.1,5.58,5.58,0,0,1-2,1.4,7.51,7.51,0,0,1-2.6.5,5.85,5.85,0,0,1-1.3-.2,3.7,3.7,0,0,1-1.1-.5l-.9-.6a4.35,4.35,0,0,1-.6-.7v1.7H42Zm3.6,13.4a3.57,3.57,0,0,0,.8,2.3,3.34,3.34,0,0,0,2.3.9,2.81,2.81,0,0,0,2.3-.9,2.86,2.86,0,0,0,.8-2.3,3.57,3.57,0,0,0-.8-2.3,3.34,3.34,0,0,0-2.3-.9,2.81,2.81,0,0,0-2.3.9A4,4,0,0,0,45.6,25.52Z" transform="translate(0 0)"/><path class="cls-1" d="M65.6,30.32a4.28,4.28,0,0,1-1.8,1.5,5.87,5.87,0,0,1-2.3.4,8.81,8.81,0,0,1-1.7-.2,10.09,10.09,0,0,1-1.5-.7,3.78,3.78,0,0,1-1-1.2,3.29,3.29,0,0,1-.4-1.7,4.33,4.33,0,0,1,.4-1.9,4.49,4.49,0,0,1,1.1-1.3,8,8,0,0,1,1.6-.8,11.63,11.63,0,0,1,1.8-.4c.6-.1,1.3-.1,1.9-.2h1.8a2.61,2.61,0,0,0-.7-1.7,2.79,2.79,0,0,0-1.8-.6,3.92,3.92,0,0,0-1.8.4A7.55,7.55,0,0,0,59.8,23l-2.1-2.1a6.14,6.14,0,0,1,2.6-1.5,10.47,10.47,0,0,1,3-.5,8.63,8.63,0,0,1,2.8.4,4.63,4.63,0,0,1,1.8,1.3,4,4,0,0,1,.9,2.1,13.33,13.33,0,0,1,.3,2.8V32H65.5Zm-1-4H63.5a5.85,5.85,0,0,0-1.3.2,2.07,2.07,0,0,0-1,.6,1,1,0,0,0-.4,1,1.1,1.1,0,0,0,.6,1,2.77,2.77,0,0,0,1.3.3,3.59,3.59,0,0,0,1.1-.2,4.18,4.18,0,0,0,1-.4,2.34,2.34,0,0,0,.7-.7,1.23,1.23,0,0,0,.2-1v-.8Z" transform="translate(0 0)"/><path class="cls-1" d="M71.2,28l6.6-5.7H71.4v-3.1h11V23l-6.9,5.8h7.1v3.1H71.2Z" transform="translate(0 0)"/><path class="cls-1" d="M92.8,30.32a4.28,4.28,0,0,1-1.8,1.5,5.87,5.87,0,0,1-2.3.4A8.81,8.81,0,0,1,87,32a10.09,10.09,0,0,1-1.5-.7,3.78,3.78,0,0,1-1-1.2,3.29,3.29,0,0,1-.4-1.7,4.33,4.33,0,0,1,.4-1.9,4.49,4.49,0,0,1,1.1-1.3,8,8,0,0,1,1.6-.8A11.63,11.63,0,0,1,89,24c.6-.1,1.3-.1,1.9-.2h1.8a2.61,2.61,0,0,0-.7-1.7,2.79,2.79,0,0,0-1.8-.6,3.92,3.92,0,0,0-1.8.4A7.55,7.55,0,0,0,87,23l-2-2.1a6.14,6.14,0,0,1,2.6-1.5,10.47,10.47,0,0,1,3-.5,8.63,8.63,0,0,1,2.8.4,4.63,4.63,0,0,1,1.8,1.3,4,4,0,0,1,.9,2.1,13.33,13.33,0,0,1,.3,2.8V32H92.8Zm-1-4H90.7a5.85,5.85,0,0,0-1.3.2,2.07,2.07,0,0,0-1,.6,1,1,0,0,0-.4,1,1.1,1.1,0,0,0,.6,1,2.77,2.77,0,0,0,1.3.3,3.59,3.59,0,0,0,1.1-.2,4.18,4.18,0,0,0,1-.4,2.34,2.34,0,0,0,.7-.7,1.23,1.23,0,0,0,.2-1v-.8Z" transform="translate(0 0)"/><path class="cls-1" d="M120.9,30.32a4.28,4.28,0,0,1-1.8,1.5,5.87,5.87,0,0,1-2.3.4,8.81,8.81,0,0,1-1.7-.2,10.09,10.09,0,0,1-1.5-.7,3.78,3.78,0,0,1-1-1.2,3.29,3.29,0,0,1-.4-1.7,4.33,4.33,0,0,1,.4-1.9,4.49,4.49,0,0,1,1.1-1.3,8,8,0,0,1,1.6-.8,11.63,11.63,0,0,1,1.8-.4c.6-.1,1.3-.1,1.9-.2h1.8a2.61,2.61,0,0,0-.7-1.7,2.79,2.79,0,0,0-1.8-.6,3.92,3.92,0,0,0-1.8.4,7.55,7.55,0,0,0-1.4,1.1l-2.1-2.1a6.14,6.14,0,0,1,2.6-1.5,10.47,10.47,0,0,1,3-.5,8.63,8.63,0,0,1,2.8.4,4.63,4.63,0,0,1,1.8,1.3,4,4,0,0,1,.9,2.1,13.33,13.33,0,0,1,.3,2.8V32h-3.6Zm-1-4h-1.1a5.85,5.85,0,0,0-1.3.2,2.07,2.07,0,0,0-1,.6,1,1,0,0,0-.4,1,1.1,1.1,0,0,0,.6,1,2.77,2.77,0,0,0,1.3.3,3.59,3.59,0,0,0,1.1-.2,4.18,4.18,0,0,0,1-.4,2.34,2.34,0,0,0,.7-.7,1.23,1.23,0,0,0,.2-1v-.8Z" transform="translate(0 0)"/><path class="cls-1" d="M106.9,30.32a4.28,4.28,0,0,1-1.8,1.5,5.87,5.87,0,0,1-2.3.4,8.81,8.81,0,0,1-1.7-.2,10.09,10.09,0,0,1-1.5-.7,3.78,3.78,0,0,1-1-1.2,3.29,3.29,0,0,1-.4-1.7,4.33,4.33,0,0,1,.4-1.9,4.49,4.49,0,0,1,1.1-1.3,8,8,0,0,1,1.6-.8,11.63,11.63,0,0,1,1.8-.4c.6-.1,1.3-.1,1.9-.2h1.8a2.61,2.61,0,0,0-.7-1.7,2.79,2.79,0,0,0-1.8-.6,3.92,3.92,0,0,0-1.8.4,7.55,7.55,0,0,0-1.4,1.1L99,20.92a6.14,6.14,0,0,1,2.6-1.5,10.47,10.47,0,0,1,3-.5,8.63,8.63,0,0,1,2.8.4,4.63,4.63,0,0,1,1.8,1.3,4,4,0,0,1,.9,2.1,13.33,13.33,0,0,1,.3,2.8V32h-3.6Zm-1-4h-1.1a5.85,5.85,0,0,0-1.3.2,2.07,2.07,0,0,0-1,.6,1,1,0,0,0-.4,1,1.1,1.1,0,0,0,.6,1,2.77,2.77,0,0,0,1.3.3,3.59,3.59,0,0,0,1.1-.2,4.18,4.18,0,0,0,1-.4,2.34,2.34,0,0,0,.7-.7,1.23,1.23,0,0,0,.2-1v-.8Z" transform="translate(0 0)"/><path class="cls-1" d="M127,19.22h3.9v2h.1a5.17,5.17,0,0,1,1.5-1.8,4,4,0,0,1,2.2-.6h.7a1.27,1.27,0,0,1,.6.1v3.6a2.35,2.35,0,0,0-.8-.2c-.3,0-.6-.1-.9-.1a5.66,5.66,0,0,0-1.8.3,2.19,2.19,0,0,0-1,.9,6.94,6.94,0,0,0-.5,1.3,10.28,10.28,0,0,0-.1,1.7v5.3H127Z" transform="translate(0 0)"/><path class="cls-1" d="M135.3,29.72a2.92,2.92,0,0,1,.2-.9,2.1,2.1,0,0,1,1.3-1.3,2.13,2.13,0,0,1,1.8,0,2.1,2.1,0,0,1,1.3,1.3,2.92,2.92,0,0,1,.2.9,2.92,2.92,0,0,1-.2.9,2.1,2.1,0,0,1-1.3,1.3,2.13,2.13,0,0,1-1.8,0,2.1,2.1,0,0,1-1.3-1.3A1.49,1.49,0,0,1,135.3,29.72Z" transform="translate(0 0)"/><path class="cls-1" d="M142.7,15.22a2,2,0,0,1,.7-1.6,2.36,2.36,0,0,1,1.6-.7,2,2,0,0,1,1.6.7,2.36,2.36,0,0,1,.7,1.6,2,2,0,0,1-.7,1.6,2.36,2.36,0,0,1-1.6.7,2,2,0,0,1-1.6-.7A2,2,0,0,1,142.7,15.22Zm.3,4h3.9v12.7H143Z" transform="translate(0 0)"/><path class="cls-1" d="M148.8,25.52a7.06,7.06,0,0,1,.6-2.8,8,8,0,0,1,1.5-2.1,5.29,5.29,0,0,1,2.3-1.3,8.68,8.68,0,0,1,2.8-.5,9.18,9.18,0,0,1,2.8.5,10.46,10.46,0,0,1,2.3,1.3,6.23,6.23,0,0,1,1.5,2.1,6.71,6.71,0,0,1,.6,2.8,7.06,7.06,0,0,1-.6,2.8,8,8,0,0,1-1.5,2.1,5.29,5.29,0,0,1-2.3,1.3,8.68,8.68,0,0,1-2.8.5,9.18,9.18,0,0,1-2.8-.5,10.46,10.46,0,0,1-2.3-1.3,6.23,6.23,0,0,1-1.5-2.1A6.71,6.71,0,0,1,148.8,25.52Zm3.9,0a3.57,3.57,0,0,0,.8,2.3,3.34,3.34,0,0,0,2.3.9,2.81,2.81,0,0,0,2.3-.9,2.86,2.86,0,0,0,.8-2.3,3.57,3.57,0,0,0-.8-2.3,3.34,3.34,0,0,0-2.3-.9,2.81,2.81,0,0,0-2.3.9A4,4,0,0,0,152.7,25.52Z" transform="translate(0 0)"/><path class="cls-1" d="M28.8,0H12.3V11.2h.1a6,6,0,0,1,2.7-2,11.33,11.33,0,0,1,3.6-.6,8.49,8.49,0,0,1,3.8.9,9.55,9.55,0,0,1,2.9,2.4,11.12,11.12,0,0,1,1.8,3.4,13.36,13.36,0,0,1,.6,4,12.34,12.34,0,0,1-.7,4.2,9.44,9.44,0,0,1-2,3.3A8.14,8.14,0,0,1,22,28.9a11,11,0,0,1-4,.8,6.45,6.45,0,0,1-2-.3,8.65,8.65,0,0,1-1.7-.7,7.1,7.1,0,0,1-1.4-1,5.24,5.24,0,0,1-1-1.1h-.1v3.1H6.1V.2H0V33H32.8V4.2a4.06,4.06,0,0,0-4-4.2Z" transform="translate(0 0)"/><path class="cls-1" d="M16.7,24.1a4.35,4.35,0,0,0,3.6-1.4A5,5,0,0,0,21.6,19a5.11,5.11,0,0,0-1.3-3.7,4.6,4.6,0,0,0-3.6-1.4,4.35,4.35,0,0,0-3.6,1.4A5,5,0,0,0,11.8,19a5.11,5.11,0,0,0,1.3,3.7A5.24,5.24,0,0,0,16.7,24.1Z" transform="translate(0 0)"/></svg>