<svg enable-background="new 0 0 49 49" viewBox="0 0 49 49" xmlns="http://www.w3.org/2000/svg"><path d="m41.8 24.3-8.6-.3c-.5 0-.9-.5-.9-1v-16c0-.4.3-.7.7-.9l8.6-1.8c.5-.1 1.1.3 1.2.8v.1 18.1c0 .6-.4 1-1 1z" fill="#2d81da" opacity=".6"/><path d="m47.8 19.2-8.6.1c-.5 0-.9-.5-.8-.9v-15.6c0-.4.3-.8.7-.9l8.5-1.9c.5-.1 1.1.3 1.2.8v.2 17.3c0 .5-.5.9-1 .9z" fill="#2d81da" opacity=".3"/><path d="m35.2 43.2-34.4-4.7c-.5-.2-.9-.8-.8-1.3v-22.8c0-.7.4-1.3.8-1.3l34.4-4.7c.8-.3 1.6.2 1.8 1v.4 31.8c0 .8-.6 1.5-1.4 1.5-.1.1-.3.1-.4.1z" fill="#575656"/><path d="m33.3 39-31.6-3.1c-.3 0-.6-.5-.6-.9v-19.7c0-.4.2-.8.6-.9l31.6-3.6c.5-.1 1.1.3 1.2.8v.2 26.2c0 .6-.4 1-1 1 0 0-.1 0-.2 0z" fill="#fff"/><path d="m35.5 8.4c.5 0 1 .2 1.4.4l.8.6c.4.3.6.8.5 1.3v31.3s0 1.8-3.1 1.2c.1 0 .6-34.8.4-34.8z" fill="#575656"/><path d="m15.2 39.6 1.5 2.5c.1.2.1.5-.2.6 0 0-.1 0-.1.1l-6.9 1.5v.8l14.3 3.4.2-1.2-1-3.3c0-.1 0-.1-.1-.2l-2.7-3.7z" fill="#575656"/><path d="m20.5 34.8-8.4-.7c-.5-.1-.9-.5-.9-1v-16.6c0-.4.3-.8.7-.9l8.4-1.2c.6 0 1 .4 1.1.9v.1 18.5c0 .5-.4.9-.9.9z" fill="#2d81da" stroke="#fff" stroke-miterlimit="10" stroke-width=".65"/></svg>